<?xml version="1.0" encoding="utf-8"?>
<!-- Generator: Adobe Illustrator 24.3.0, SVG Export Plug-In . SVG Version: 6.00 Build 0)  -->
<svg version="1.1" id="Layer_1" xmlns="http://www.w3.org/2000/svg" xmlns:xlink="http://www.w3.org/1999/xlink" x="0px" y="0px"
	 viewBox="0 0 310 60" style="enable-background:new 0 0 310 60;" xml:space="preserve">
<style type="text/css">
	.st0{fill:#272727;}
</style>
<g>
	<g>
		<g>
			<path class="st0" d="M97.43,4.42l-35.03,0c-1.06,0-2.03,0.72-2.24,1.77c-0.29,1.44,0.8,2.7,2.18,2.7h14.6
				c0.4,0,0.72,0.32,0.72,0.72v43.65c0,1.21,0.9,2.29,2.11,2.35c1.29,0.07,2.35-0.96,2.35-2.23V9.59c0-0.4,0.32-0.72,0.72-0.72
				h14.54c1.06,0,2.03-0.72,2.24-1.77C99.9,5.68,98.81,4.42,97.43,4.42z"/>
			<path class="st0" d="M232.47,55.57c-1.21-0.06-2.11-1.15-2.11-2.35V14.54c0-0.66-0.83-0.97-1.26-0.47l-17.91,20.67
				c-0.42,0.48-1.03,0.76-1.67,0.76h-0.01c-0.64,0-1.25-0.27-1.67-0.75l-18.41-20.81c-0.44-0.5-1.26-0.19-1.26,0.48v38.8
				c0,1.21-0.91,2.29-2.11,2.35c-1.29,0.07-2.35-0.96-2.35-2.23V6.71c0-0.73,0.32-1.45,0.91-1.88c0.97-0.7,2.25-0.52,3,0.32
				l21.33,24.12c0.29,0.33,0.8,0.32,1.08-0.01L230.9,5.17c0.74-0.85,2.03-1.04,3.01-0.34c0.59,0.43,0.91,1.15,0.91,1.88v46.63
				C234.82,54.62,233.76,55.64,232.47,55.57z"/>
			<path class="st0" d="M302.65,55.57c-1.21-0.06-2.11-1.15-2.11-2.35V14.54c0-0.66-0.83-0.97-1.26-0.47l-17.91,20.67
				c-0.42,0.48-1.03,0.76-1.67,0.76h-0.01c-0.64,0-1.25-0.27-1.67-0.75l-18.41-20.81c-0.44-0.5-1.26-0.19-1.26,0.48v38.8
				c0,1.21-0.91,2.29-2.11,2.35c-1.29,0.07-2.35-0.96-2.35-2.23V6.71c0-0.73,0.32-1.45,0.91-1.88c0.97-0.7,2.25-0.52,3,0.32
				l21.33,24.12c0.29,0.33,0.8,0.32,1.08-0.01l20.87-24.09c0.74-0.85,2.03-1.04,3.01-0.34c0.59,0.43,0.91,1.15,0.91,1.88v46.63
				C305,54.62,303.94,55.64,302.65,55.57z"/>
			<path class="st0" d="M163.38,55.6h-46.74c-0.77,0-1.49-0.4-1.9-1.06c-0.41-0.66-0.44-1.48-0.1-2.17l23.37-46.74
				c0.38-0.76,1.15-1.23,2-1.23s1.62,0.48,2,1.23l23.37,46.74c0.35,0.69,0.31,1.51-0.1,2.17C164.87,55.2,164.15,55.6,163.38,55.6z
				 M121.4,51.14h37.21c0.53,0,0.87-0.56,0.64-1.03L140.64,12.9c-0.26-0.52-1.01-0.52-1.27,0l-18.61,37.21
				C120.53,50.58,120.87,51.14,121.4,51.14z"/>
			<circle class="st0" cx="119.74" cy="7.1" r="3.1"/>
			<circle class="st0" cx="160.27" cy="7.1" r="3.1"/>
			<g>
				<path class="st0" d="M25.44,57.03c-12.05,0-19.55-8.15-19.86-8.5c-0.83-0.92-0.75-2.33,0.16-3.15c0.91-0.82,2.32-0.75,3.15,0.16
					c0.11,0.12,6.58,7.03,16.55,7.03c9.64,0,14.53-3.39,14.53-10.07c0-5.03-4.36-8.1-15.04-10.6C20.59,30.87,7.4,27.78,7.4,17.37
					c0-8.34,7.6-14.4,18.07-14.4c9.85,0,16.74,6.14,17.03,6.4c0.91,0.83,0.98,2.24,0.16,3.15c-0.83,0.91-2.24,0.98-3.15,0.16
					c-0.05-0.05-5.94-5.24-14.03-5.24c-7.88,0-13.61,4.18-13.61,9.93c0,1.7,0,6.87,14.08,10.17c6,1.41,18.48,4.33,18.48,14.95
					C44.43,51.73,37.51,57.03,25.44,57.03z"/>
			</g>
		</g>
	</g>
</g>
</svg>
